#!OML:ASF C:\Vicon Data\Big\jianyuan-11\jianyuan\Session 1\male.ASF
:FULLY-SPECIFIED
:DEGREES
181
root -13.582238 16.320524 -10.280821 -16.345614 -40.713863 16.147843
lowerback 1.905858 3.830800 -5.287264 
upperback 5.787846 5.465877 -1.639748 
thorax 4.618890 2.629651 1.353239 
lowerneck -12.470874 -7.476167 -11.435994 
upperneck 24.022652 -10.023611 10.590054 
head 10.942776 -4.235933 4.425408 
rclavicle 0.000000 0.000000 
rhumerus -43.129364 -29.021880 -74.128313 
rradius 37.030604 
rwrist -0.409796 
rhand -18.020423 -0.904309 
rfingers 0.000000 
rthumb 8.250626 -30.723181 
lclavicle 0.000000 0.000000 
lhumerus -36.004902 44.749590 69.238382 
lradius 22.865145 
lwrist -40.269611 
lhand -16.239839 -8.818721 
lfingers 0.000000 
lthumb 9.968747 20.925232 
rfemur -16.959333 -6.614596 14.291421 
rtibia 80.148187 
rfoot 9.486234 -9.200025 
rtoes -0.943412 
lfemur -9.140084 -4.202825 -30.833703 
ltibia 29.293301 
lfoot -12.497884 0.032594 
ltoes 2.277836 
182
root -13.629308 16.328186 -10.222045 -16.468180 -40.763917 16.125010
lowerback 2.121887 3.724841 -5.240457 
upperback 5.795182 5.309080 -1.622058 
thorax 4.515229 2.556769 1.328617 
lowerneck -12.419546 -7.398931 -11.411099 
upperneck 24.033372 -9.918762 10.570548 
head 10.919947 -4.189563 4.431869 
rclavicle 0.000000 0.000000 
rhumerus -43.387541 -28.983255 -73.960346 
rradius 37.027670 
rwrist -0.402577 
rhand -18.084043 -0.816985 
rfingers 0.000000 
rthumb 8.189216 -30.638257 
lclavicle 0.000000 0.000000 
lhumerus -34.805562 43.563072 70.765688 
lradius 23.256170 
lwrist -38.767280 
lhand -16.199223 -8.769119 
lfingers 0.000000 
lthumb 10.007940 20.972931 
rfemur -17.706773 -6.513866 14.265307 
rtibia 80.235365 
rfoot 9.111303 -8.792658 
rtoes 0.338636 
lfemur -8.577316 -4.096593 -30.851378 
ltibia 29.048635 
lfoot -12.605146 -0.028424 
ltoes 1.518837 
183
root -13.674989 16.335997 -10.165302 -16.534809 -40.796221 16.103977
lowerback 2.340806 3.610666 -5.166755 
upperback 5.764049 5.139621 -1.642649 
thorax 4.375690 2.480529 1.248903 
lowerneck -12.399408 -7.313433 -11.273396 
upperneck 24.092450 -9.805640 10.467121 
head 10.908683 -4.136093 4.389781 
rclavicle 0.000000 0.000000 
rhumerus -43.642619 -28.966489 -73.818989 
rradius 37.017224 
rwrist -0.463389 
rhand -18.065192 -0.827497 
rfingers 0.000000 
rthumb 8.207422 -30.648096 
lclavicle 0.000000 0.000000 
lhumerus -33.712503 42.350037 72.121504 
lradius 23.643347 
lwrist -37.459011 
lhand -16.185732 -8.825803 
lfingers 0.000000 
lthumb 10.020942 20.915617 
rfemur -18.503872 -6.435078 14.231328 
rtibia 80.269753 
rfoot 8.795390 -8.272850 
rtoes 1.403509 
lfemur -8.085646 -3.959829 -30.860157 
ltibia 28.798595 
lfoot -12.640907 -0.069814 
ltoes 0.036714 
184
root -13.722244 16.343148 -10.106131 -16.676881 -40.898833 16.111500
lowerback 2.419764 3.532449 -5.186084 
upperback 5.863749 5.035711 -1.567491 
thorax 4.434091 2.424988 1.334826 
lowerneck -12.491673 -7.258839 -11.202012 
upperneck 24.101905 -9.701573 10.313753 
head 10.903811 -4.098866 4.334091 
rclavicle 0.000000 0.000000 
rhumerus -43.711046 -28.965035 -73.592979 
rradius 36.989578 
rwrist -0.527432 
rhand -17.997104 -0.866513 
rfingers 0.000000 
rthumb 8.273130 -30.684541 
lclavicle 0.000000 0.000000 
lhumerus -32.540076 41.250201 73.649284 
lradius 24.071405 
lwrist -36.226875 
lhand -16.121215 -8.961407 
lfingers 0.000000 
lthumb 10.083169 20.776994 
rfemur -19.206912 -6.269795 14.201166 
rtibia 80.232358 
rfoot 8.599021 -7.542771 
rtoes 1.168455 
lfemur -7.526049 -3.741837 -30.873700 
ltibia 28.543665 
lfoot -12.743447 -0.104141 
ltoes -1.527283 
185
root -13.769188 16.350491 -10.048074 -16.823134 -40.963020 16.161753
lowerback 2.435965 3.452714 -5.279833 
upperback 5.989788 4.936617 -1.481503 
thorax 4.549432 2.366829 1.478541 
lowerneck -12.680176 -7.216352 -11.112419 
upperneck 24.170652 -9.603458 10.117346 
head 10.937795 -4.064012 4.257535 
rclavicle 0.000000 0.000000 
rhumerus -43.750801 -29.028599 -73.334991 
rradius 36.956333 
rwrist -0.445021 
rhand -17.998861 -0.772436 
rfingers 0.000000 
rthumb 8.271431 -30.590514 
lclavicle 0.000000 0.000000 
lhumerus -31.358485 40.123909 75.197842 
lradius 24.557111 
lwrist -34.868093 
lhand -15.986028 -9.087551 
lfingers 0.000000 
lthumb 10.213599 20.644482 
rfemur -19.926731 -6.100854 14.127554 
rtibia 80.139934 
rfoot 8.315330 -6.904052 
rtoes 0.766327 
lfemur -6.996408 -3.525812 -30.929745 
ltibia 28.292532 
lfoot -12.862908 -0.222173 
ltoes -1.486257 
186
root -13.816328 16.357573 -9.993194 -16.934018 -40.972043 16.197561
lowerback 2.598752 3.352003 -5.313154 
upperback 6.005740 4.793950 -1.484695 
thorax 4.480855 2.297269 1.482700 
lowerneck -12.797069 -7.153366 -11.048969 
upperneck 24.321774 -9.516329 10.083214 
head 11.000377 -4.015779 4.249034 
rclavicle 0.000000 0.000000 
rhumerus -43.954869 -29.120320 -73.138034 
rradius 36.953893 
rwrist -0.364895 
rhand -17.960585 -0.744236 
rfingers 0.000000 
rthumb 8.308375 -30.560835 
lclavicle 0.000000 0.000000 
lhumerus -30.391616 38.857771 76.422808 
lradius 25.058134 
lwrist -33.501147 
lhand -15.892111 -9.177477 
lfingers 0.000000 
lthumb 10.304207 20.550106 
rfemur -20.656651 -5.970031 14.051456 
rtibia 80.003674 
rfoot 8.076678 -6.404649 
rtoes 0.951022 
lfemur -6.501714 -3.324563 -30.974879 
ltibia 28.048408 
lfoot -12.892702 -0.410500 
ltoes -0.695467 
187
root -13.866324 16.364536 -9.936886 -16.991821 -41.074021 16.152146
lowerback 2.737804 3.279648 -5.289906 
upperback 6.010107 4.686234 -1.450943 
thorax 4.412137 2.245802 1.495295 
lowerneck -12.810062 -7.102313 -11.163264 
upperneck 24.397955 -9.455096 10.226906 
head 11.038009 -3.979790 4.333541 
rclavicle 0.000000 0.000000 
rhumerus -44.179237 -29.143585 -72.945700 
rradius 37.000170 
rwrist -0.510691 
rhand -17.881572 -0.845986 
rfingers 0.000000 
rthumb 8.384620 -30.659550 
lclavicle 0.000000 0.000000 
lhumerus -29.501520 37.538542 77.593121 
lradius 25.525450 
lwrist -32.197400 
lhand -15.944137 -9.191208 
lfingers 0.000000 
lthumb 10.254012 20.538807 
rfemur -21.348742 -5.762966 14.085396 
rtibia 79.793716 
rfoot 8.046642 -5.864743 
rtoes 1.403965 
lfemur -6.001271 -3.101562 -30.923156 
ltibia 27.806405 
lfoot -12.927228 -0.542766 
ltoes -0.850322 
188
root -13.914888 16.371001 -9.879930 -17.003380 -41.183752 16.100001
lowerback 2.745743 3.207319 -5.300827 
upperback 6.069413 4.589111 -1.358913 
thorax 4.467835 2.192448 1.597855 
lowerneck -12.871658 -7.053520 -11.210475 
upperneck 24.399923 -9.369446 10.216555 
head 11.041971 -3.946372 4.349267 
rclavicle 0.000000 0.000000 
rhumerus -44.279999 -29.141132 -72.716288 
rradius 37.031779 
rwrist -0.588817 
rhand -17.827507 -0.890615 
rfingers 0.000000 
rthumb 8.436827 -30.702139 
lclavicle 0.000000 0.000000 
lhumerus -28.577172 36.282584 78.841123 
lradius 26.012660 
lwrist -30.921402 
lhand -16.099337 -9.150238 
lfingers 0.000000 
lthumb 10.104295 20.587111 
rfemur -22.080282 -5.571225 14.115742 
rtibia 79.534700 
rfoot 7.841376 -5.275940 
rtoes 1.243178 
lfemur -5.551429 -2.915375 -30.872562 
ltibia 27.568599 
lfoot -13.047435 -0.621996 
ltoes -1.198324 
189
root -13.960717 16.374830 -9.823774 -17.117853 -41.197235 16.154014
lowerback 2.855835 3.108755 -5.334288 
upperback 6.114142 4.455007 -1.351212 
thorax 4.458751 2.125152 1.618922 
lowerneck -12.948589 -6.998021 -11.158548 
upperneck 24.431839 -9.299193 10.215963 
head 11.056912 -3.907728 4.350276 
rclavicle 0.000000 0.000000 
rhumerus -44.416907 -29.190550 -72.497344 
rradius 37.026793 
rwrist -0.454276 
rhand -17.747179 -0.848691 
rfingers 0.000000 
rthumb 8.514359 -30.657049 
lclavicle 0.000000 0.000000 
lhumerus -27.744975 35.132156 79.892834 
lradius 26.546447 
lwrist -29.739879 
lhand -16.042117 -8.919150 
lfingers 0.000000 
lthumb 10.159517 20.815509 
rfemur -22.740091 -5.424022 13.988084 
rtibia 79.236579 
rfoot 7.365165 -4.713491 
rtoes 2.357300 
lfemur -5.070512 -2.730515 -30.936426 
ltibia 27.331755 
lfoot -13.123870 -0.712052 
ltoes -1.650484 
190
root -14.008546 16.379983 -9.765260 -17.188257 -41.276513 16.212314
lowerback 2.919317 3.048336 -5.336399 
upperback 6.097563 4.368749 -1.360995 
thorax 4.411478 2.083630 1.605506 
lowerneck -12.947904 -6.961499 -11.100251 
upperneck 24.481111 -9.260882 10.209341 
head 11.066523 -3.884252 4.345453 
rclavicle 0.000000 0.000000 
rhumerus -44.700084 -29.368665 -72.185460 
rradius 37.062580 
rwrist -0.433794 
rhand -17.553150 -0.822936 
rfingers 0.000000 
rthumb 8.701576 -30.623622 
lclavicle 0.000000 0.000000 
lhumerus -27.035718 33.903121 80.805268 
lradius 27.053226 
lwrist -28.562460 
lhand -16.005977 -8.941214 
lfingers 0.000000 
lthumb 10.194456 20.791753 
rfemur -23.428447 -5.265109 13.896752 
rtibia 78.904784 
rfoot 7.114711 -4.106023 
rtoes 2.139194 
lfemur -4.635181 -2.541359 -30.983269 
ltibia 27.099770 
lfoot -13.256934 -0.794029 
ltoes -1.813255 
191
root -14.057083 16.384923 -9.706608 -17.271118 -41.354276 16.330398
lowerback 2.918607 2.964890 -5.428140 
upperback 6.116544 4.259047 -1.357325 
thorax 4.433227 2.024210 1.660755 
lowerneck -13.033657 -6.905183 -10.984424 
upperneck 24.556618 -9.172643 10.081648 
head 11.087038 -3.844983 4.291647 
rclavicle 0.000000 0.000000 
rhumerus -44.864205 -29.385350 -71.985987 
rradius 37.069200 
rwrist -0.491486 
rhand -17.561797 -0.719754 
rfingers 0.000000 
rthumb 8.693193 -30.520798 
lclavicle 0.000000 0.000000 
lhumerus -26.352956 32.757652 81.651107 
lradius 27.552645 
lwrist -27.526504 
lhand -15.902505 -9.034272 
lfingers 0.000000 
lthumb 10.294178 20.693755 
rfemur -24.144722 -5.087181 13.738949 
rtibia 78.534920 
rfoot 6.774343 -3.672785 
rtoes 2.264854 
lfemur -4.232900 -2.389288 -31.085970 
ltibia 26.869780 
lfoot -13.378074 -0.827213 
ltoes -2.331024 
192
root -14.104241 16.388024 -9.653638 -17.346687 -41.400416 16.370672
lowerback 2.949837 2.872538 -5.520547 
upperback 6.160641 4.134672 -1.295958 
thorax 4.460601 1.955640 1.774854 
lowerneck -13.067578 -6.858095 -10.934820 
upperneck 24.572211 -9.084650 9.955986 
head 11.078923 -3.815011 4.249083 
rclavicle 0.000000 0.000000 
rhumerus -44.930861 -29.352341 -71.759941 
rradius 37.029626 
rwrist -0.495598 
rhand -17.561432 -0.679983 
rfingers 0.000000 
rthumb 8.693594 -30.480950 
lclavicle 0.000000 0.000000 
lhumerus -25.634605 31.788088 82.562496 
lradius 28.046865 
lwrist -26.458279 
lhand -15.837217 -8.878821 
lfingers 0.000000 
lthumb 10.357186 20.846124 
rfemur -24.767785 -4.913119 13.653053 
rtibia 78.075715 
rfoot 6.385505 -3.389804 
rtoes 3.336864 
lfemur -3.796136 -2.245244 -31.121531 
ltibia 26.629600 
lfoot -13.612144 -0.787654 
ltoes -3.462358 
